HIERARCHY
ROOT Hips
{
	OFFSET 0.000000 83.214638 0.000000
	CHANNELS 6 Xposition Yposition Zposition Xrotation Yrotation Zrotation
	JOINT Pelvis
	{
		OFFSET 0.000000 0.000000 0.000000
		CHANNELS 3 Xrotation Yrotation Zrotation
		JOINT LeftUpLeg
		{
			OFFSET 8.479700 -4.795502 -0.379100
			CHANNELS 3 Xrotation Yrotation Zrotation
			JOINT LeftLeg
			{
				OFFSET 0.024144 -32.555107 0.112900
				CHANNELS 3 Xrotation Yrotation Zrotation
				JOINT LeftFoot
				{
					OFFSET -0.024144 -32.638630 -3.012600
					CHANNELS 3 Xrotation Yrotation Zrotation
					JOINT LeftToeBase
					{
						OFFSET 0.970200 -13.225400 11.864200
						CHANNELS 3 Xrotation Yrotation Zrotation
						End Site
						{
							OFFSET 0.000000 12.319262 0.000000
						}
					}
					JOINT LFootTongue
					{
						OFFSET 1.142400 -1.059800 6.665200
						CHANNELS 3 Xrotation Yrotation Zrotation
						End Site
						{
							OFFSET 0.000000 12.319262 0.000000
						}
					}
				}
				JOINT LeftPantLeg
				{
					OFFSET 0.918482 -16.533964 -2.284700
					CHANNELS 3 Xrotation Yrotation Zrotation
					End Site
					{
						OFFSET 0.350399 24.744368 0.000000
					}
				}
			}
		}
		JOINT RightUpLeg
		{
			OFFSET -8.479700 -4.795502 -0.379100
			CHANNELS 3 Xrotation Yrotation Zrotation
			JOINT RightLeg
			{
				OFFSET -0.023144 -32.555092 0.112900
				CHANNELS 3 Xrotation Yrotation Zrotation
				JOINT RightFoot
				{
					OFFSET 0.023144 -32.638641 -3.012700
					CHANNELS 3 Xrotation Yrotation Zrotation
					JOINT RightToeBase
					{
						OFFSET -0.970200 -13.225400 11.864200
						CHANNELS 3 Xrotation Yrotation Zrotation
						End Site
						{
							OFFSET 0.000000 12.319244 0.000000
						}
					}
					JOINT RFootTongue
					{
						OFFSET -1.142200 -1.059800 6.665200
						CHANNELS 3 Xrotation Yrotation Zrotation
						End Site
						{
							OFFSET 0.000000 12.319243 0.000000
						}
					}
				}
				JOINT RightPantLeg
				{
					OFFSET -0.919482 -16.533978 -2.284800
					CHANNELS 3 Xrotation Yrotation Zrotation
					End Site
					{
						OFFSET -0.350400 24.744419 0.000000
					}
				}
			}
		}
	}
	JOINT Spine
	{
		OFFSET 0.000000 7.722000 1.166200
		CHANNELS 3 Xrotation Yrotation Zrotation
		JOINT Spine1
		{
			OFFSET 0.000000 12.024101 0.248800
			CHANNELS 3 Xrotation Yrotation Zrotation
			JOINT Spine2
			{
				OFFSET 0.000000 11.502998 -0.491200
				CHANNELS 3 Xrotation Yrotation Zrotation
				JOINT Neck
				{
					OFFSET 0.000000 18.430702 -3.123100
					CHANNELS 3 Xrotation Yrotation Zrotation
					JOINT Head
					{
						OFFSET 0.000000 9.051102 1.034000
						CHANNELS 3 Xrotation Yrotation Zrotation
						JOINT HairB
						{
							OFFSET 0.208400 24.786102 24.822300
							CHANNELS 3 Xrotation Yrotation Zrotation
							End Site
							{
								OFFSET 0.000000 32.263779 0.000000
							}
						}
						JOINT HairA
						{
							OFFSET -7.081100 24.428299 23.196600
							CHANNELS 3 Xrotation Yrotation Zrotation
							End Site
							{
								OFFSET 0.000000 32.263779 0.000000
							}
						}
						JOINT Hat
						{
							OFFSET 16.728800 15.048294 -15.439601
							CHANNELS 3 Xrotation Yrotation Zrotation
							End Site
							{
								OFFSET 0.000000 32.263779 0.000000
							}
						}
					}
				}
				JOINT LeftShoulder
				{
					OFFSET 6.197800 13.665199 -4.064700
					CHANNELS 3 Xrotation Yrotation Zrotation
					JOINT LeftArm
					{
						OFFSET 7.778100 -0.187103 -1.709300
						CHANNELS 3 Xrotation Yrotation Zrotation
						JOINT LeftForeArm
						{
							OFFSET 22.049376 0.000000 0.000000
							CHANNELS 3 Xrotation Yrotation Zrotation
							JOINT LeftHand
							{
								OFFSET 23.009392 0.000000 0.000000
								CHANNELS 3 Xrotation Yrotation Zrotation
								JOINT LeftHandThumb1
								{
									OFFSET 3.507191 -2.063065 3.133727
									CHANNELS 3 Xrotation Yrotation Zrotation
									JOINT LeftHandThumb2
									{
										OFFSET 3.101337 -1.790558 1.790558
										CHANNELS 3 Xrotation Yrotation Zrotation
										JOINT LeftHandThumb3
										{
											OFFSET 3.058640 -1.765907 1.765906
											CHANNELS 3 Xrotation Yrotation Zrotation
											End Site
											{
												OFFSET -0.415260 3.926476 -0.049563
											}
										}
									}
								}
								JOINT LeftHandIndex1
								{
									OFFSET 11.334419 -0.901459 3.706815
									CHANNELS 3 Xrotation Yrotation Zrotation
									JOINT LeftHandIndex2
									{
										OFFSET 3.283112 0.000000 0.000000
										CHANNELS 3 Xrotation Yrotation Zrotation
										JOINT LeftHandIndex3
										{
											OFFSET 3.323853 0.000000 0.000000
											CHANNELS 3 Xrotation Yrotation Zrotation
											End Site
											{
												OFFSET -1.135597 3.097809 0.402452
											}
										}
									}
								}
								JOINT LeftHandMiddle1
								{
									OFFSET 11.335861 0.000000 0.000000
									CHANNELS 3 Xrotation Yrotation Zrotation
									JOINT LeftHandMiddle2
									{
										OFFSET 3.410492 0.000000 0.000000
										CHANNELS 3 Xrotation Yrotation Zrotation
										JOINT LeftHandMiddle3
										{
											OFFSET 3.312172 0.000000 0.000000
											CHANNELS 3 Xrotation Yrotation Zrotation
											End Site
											{
												OFFSET -1.150200 3.080154 0.400270
											}
										}
									}
								}
								JOINT LeftHandRing1
								{
									OFFSET 11.514786 -0.013176 -3.003090
									CHANNELS 3 Xrotation Yrotation Zrotation
									JOINT LeftHandRing2
									{
										OFFSET 3.053307 0.000000 0.000000
										CHANNELS 3 Xrotation Yrotation Zrotation
										JOINT LeftHandRing3
										{
											OFFSET 3.295807 0.000000 0.000000
											CHANNELS 3 Xrotation Yrotation Zrotation
											End Site
											{
												OFFSET -1.281006 3.013344 0.375733
											}
										}
									}
								}
								JOINT LeftHandPinky1
								{
									OFFSET 10.518692 -0.960396 -5.730441
									CHANNELS 3 Xrotation Yrotation Zrotation
									JOINT LeftHandPinky2
									{
										OFFSET 2.861649 0.000000 0.000000
										CHANNELS 3 Xrotation Yrotation Zrotation
										JOINT LeftHandPinky3
										{
											OFFSET 2.863380 0.000000 0.000000
											CHANNELS 3 Xrotation Yrotation Zrotation
											End Site
											{
												OFFSET -0.843597 2.711159 0.369971
											}
										}
									}
								}
							}
							JOINT LSleeve
							{
								OFFSET 6.676277 -0.344902 -1.011730
								CHANNELS 3 Xrotation Yrotation Zrotation
								End Site
								{
									OFFSET 0.000000 14.885353 0.000000
								}
							}
						}
					}
				}
				JOINT RightShoulder
				{
					OFFSET -6.197800 13.665199 -4.064700
					CHANNELS 3 Xrotation Yrotation Zrotation
					JOINT RightArm
					{
						OFFSET -7.778100 -0.187103 -1.709300
						CHANNELS 3 Xrotation Yrotation Zrotation
						JOINT RightForeArm
						{
							OFFSET -22.049376 0.000000 0.000000
							CHANNELS 3 Xrotation Yrotation Zrotation
							JOINT RightHand
							{
								OFFSET -23.009392 0.000000 0.000000
								CHANNELS 3 Xrotation Yrotation Zrotation
								JOINT RightHandThumb1
								{
									OFFSET -3.507191 -2.063065 3.133727
									CHANNELS 3 Xrotation Yrotation Zrotation
									JOINT RightHandThumb2
									{
										OFFSET -3.101337 -1.790558 1.790558
										CHANNELS 3 Xrotation Yrotation Zrotation
										JOINT RightHandThumb3
										{
											OFFSET -3.058640 -1.765907 1.765906
											CHANNELS 3 Xrotation Yrotation Zrotation
											End Site
											{
												OFFSET 0.415260 3.926476 -0.049563
											}
										}
									}
								}
								JOINT RightHandIndex1
								{
									OFFSET -11.334419 -0.901459 3.706815
									CHANNELS 3 Xrotation Yrotation Zrotation
									JOINT RightHandIndex2
									{
										OFFSET -3.283112 0.000000 0.000000
										CHANNELS 3 Xrotation Yrotation Zrotation
										JOINT RightHandIndex3
										{
											OFFSET -3.323853 0.000000 0.000000
											CHANNELS 3 Xrotation Yrotation Zrotation
											End Site
											{
												OFFSET 1.135597 3.097809 0.402452
											}
										}
									}
								}
								JOINT RightHandMiddle1
								{
									OFFSET -11.335861 0.000000 0.000000
									CHANNELS 3 Xrotation Yrotation Zrotation
									JOINT RightHandMiddle2
									{
										OFFSET -3.410492 0.000000 0.000000
										CHANNELS 3 Xrotation Yrotation Zrotation
										JOINT RightHandMiddle3
										{
											OFFSET -3.312172 0.000000 0.000000
											CHANNELS 3 Xrotation Yrotation Zrotation
											End Site
											{
												OFFSET 1.150200 3.080154 0.400270
											}
										}
									}
								}
								JOINT RightHandRing1
								{
									OFFSET -11.514786 -0.013176 -3.003090
									CHANNELS 3 Xrotation Yrotation Zrotation
									JOINT RightHandRing2
									{
										OFFSET -3.053307 0.000000 0.000000
										CHANNELS 3 Xrotation Yrotation Zrotation
										JOINT RightHandRing3
										{
											OFFSET -3.295807 0.000000 0.000000
											CHANNELS 3 Xrotation Yrotation Zrotation
											End Site
											{
												OFFSET 1.281006 3.013344 0.375733
											}
										}
									}
								}
								JOINT RightHandPinky1
								{
									OFFSET -10.518692 -0.960396 -5.730441
									CHANNELS 3 Xrotation Yrotation Zrotation
									JOINT RightHandPinky2
									{
										OFFSET -2.861649 0.000000 0.000000
										CHANNELS 3 Xrotation Yrotation Zrotation
										JOINT RightHandPinky3
										{
											OFFSET -2.863380 0.000000 0.000000
											CHANNELS 3 Xrotation Yrotation Zrotation
											End Site
											{
												OFFSET 0.843597 2.711159 0.369971
											}
										}
									}
								}
							}
							JOINT RSleeve
							{
								OFFSET -6.676277 -0.344902 -1.011730
								CHANNELS 3 Xrotation Yrotation Zrotation
								End Site
								{
									OFFSET 0.000000 14.885353 0.000000
								}
							}
						}
					}
				}
				JOINT Backpack
				{
					OFFSET 0.000000 -2.471497 36.677502
					CHANNELS 3 Xrotation Yrotation Zrotation
					End Site
					{
						OFFSET 0.000000 20.427315 0.000000
					}
				}
				JOINT Hood
				{
					OFFSET 0.000000 18.754097 -10.431000
					CHANNELS 3 Xrotation Yrotation Zrotation
					JOINT Hood1
					{
						OFFSET 0.000000 -5.011002 -7.685901
						CHANNELS 3 Xrotation Yrotation Zrotation
						End Site
						{
							OFFSET 0.000000 9.175140 0.000000
						}
					}
				}
				JOINT LHoodieString
				{
					OFFSET 5.250500 16.397697 3.089900
					CHANNELS 3 Xrotation Yrotation Zrotation
					JOINT LHoodieString1
					{
						OFFSET 0.257700 -6.364304 3.694600
						CHANNELS 3 Xrotation Yrotation Zrotation
						JOINT LHoodieString2
						{
							OFFSET 0.000000 -9.643799 2.679100
							CHANNELS 3 Xrotation Yrotation Zrotation
							End Site
							{
								OFFSET 0.000000 10.009018 0.000000
							}
						}
					}
				}
				JOINT RHoodieString
				{
					OFFSET -5.250500 16.397697 3.089900
					CHANNELS 3 Xrotation Yrotation Zrotation
					JOINT RHoodieString1
					{
						OFFSET -0.257700 -6.364304 3.694600
						CHANNELS 3 Xrotation Yrotation Zrotation
						JOINT RHoodieString2
						{
							OFFSET 0.000000 -9.643799 2.679100
							CHANNELS 3 Xrotation Yrotation Zrotation
							End Site
							{
								OFFSET 0.000000 10.009018 0.000000
							}
						}
					}
				}
			}
			JOINT LBackpack_Strap
			{
				OFFSET 15.223200 -7.719803 -6.610900
				CHANNELS 3 Xrotation Yrotation Zrotation
				End Site
				{
					OFFSET 0.000000 16.040596 0.000000
				}
			}
			JOINT RBackpack_Strap
			{
				OFFSET -15.223000 -7.719803 -6.610900
				CHANNELS 3 Xrotation Yrotation Zrotation
				End Site
				{
					OFFSET 0.000000 16.040596 0.000000
				}
			}
		}
	}
	JOINT BoyFacialAnim_Joint
	{
		OFFSET 1.000000 -82.208099 -1.550900
		CHANNELS 3 Xrotation Yrotation Zrotation
		End Site
		{
			OFFSET 0.000000 30.012791 0.000000
		}
	}
}
MOTION
Frames: 4
Frame Time: 0.033333
-33.700653 14.927391 -54.903683 -222.102083 46.065979 109.562928 -0.000001 0.000001 0.000002 -2.100221 -15.932472 13.642213 19.553698 0.278579 -0.663942 12.309280 29.190248 -11.551773 0.000001 -0.000001 -0.000001 0.000001 -0.000001 -0.000001 0.000000 -0.000000 -0.000000 -13.288410 17.024697 -36.478121 30.776949 1.614498 1.228214 -19.183534 -15.223327 -10.401070 0.000002 0.000003 -0.000001 0.000002 0.000003 -0.000001 -0.000000 0.000001 -0.000002 1.377111 -2.605710 5.875301 3.081357 -4.982017 12.821611 3.081373 -4.982013 12.821606 -14.181827 -6.119423 -14.680054 -29.491384 6.479674 -0.811577 -0.000000 0.000001 0.000000 -0.000000 0.000001 0.000000 -0.000000 0.000001 0.000000 -1.379870 -16.889538 -23.977987 -26.858923 -41.462776 -74.222703 -0.002321 -115.558277 -0.004753 52.613364 -18.606376 43.475858 0.128419 8.366647 -4.974223 -1.843320 0.608324 1.703070 -0.000003 -0.000001 -0.000001 4.812287 -9.356777 -29.323583 -0.948080 0.951031 -29.142635 0.000001 -0.000000 -0.000005 0.183672 5.577218 -22.507526 -1.935604 -2.040062 -34.436362 0.000003 0.000000 -0.000003 0.088582 9.519444 -26.183216 -2.121414 -3.922259 -42.445241 -0.000001 -0.000001 -0.000002 -1.532194 26.318995 -33.559465 -3.260094 -7.441255 -47.782084 -0.000000 0.000001 0.000002 -0.000000 0.000001 -0.000000 1.456708 -0.455850 -23.472039 -83.957286 59.469801 19.875673 -0.048236 67.248192 -0.048223 13.273775 7.368096 -17.008371 -2.226665 9.222836 8.984287 -1.025282 -0.172453 -1.891415 -0.000001 -0.000002 -0.000001 10.284023 13.420878 10.224341 0.036101 -0.804042 8.239663 0.000001 -0.000001 -0.000000 -1.763120 -1.413762 7.550898 -0.355403 1.034305 25.607742 0.000001 -0.000002 -0.000001 -0.988298 -13.271998 22.451173 -0.382815 2.638523 20.368826 -0.000000 0.000001 -0.000001 -4.791508 -23.300680 34.001030 -0.421405 5.811072 16.992898 -0.000001 -0.000002 -0.000002 0.000000 0.000001 -0.000000 -0.000000 -0.000001 -0.000000 -0.000000 -0.000001 -0.000000 -0.000000 -0.000001 -0.000000 -0.000000 -0.000001 -0.000000 -0.000000 -0.000001 -0.000000 0.000000 -0.000000 0.000001 -0.000000 -0.000001 -0.000000 -0.000000 -0.000001 -0.000000 0.000000 -0.000000 0.000001 0.000001 -0.000001 -0.000001 0.000001 -0.000001 -0.000001 -0.000001 0.000001 0.000002 
-33.576294 16.428963 -58.503864 -233.686344 39.164185 111.979688 0.000002 -0.000003 -0.000002 -2.829814 -7.608844 20.968035 19.661376 0.202715 -0.702188 5.067255 30.781945 -1.158047 0.000001 0.000002 0.000001 0.000001 0.000002 0.000002 0.000001 0.000002 -0.000001 -4.235945 14.196792 -29.963200 29.944628 1.400166 1.177832 -12.689869 -12.377214 -4.693417 0.000001 -0.000000 0.000003 0.000001 -0.000000 0.000003 0.000000 -0.000001 0.000003 2.108410 -3.321997 6.283818 4.639806 -6.439944 13.379194 4.639825 -6.439950 13.379175 -16.756336 -7.648351 -13.649954 -28.824976 7.412097 -4.262627 0.000003 -0.000001 0.000001 0.000003 -0.000001 0.000001 0.000003 -0.000001 0.000001 -2.590467 -21.978353 -29.734129 -23.993835 -29.265083 -70.434693 0.013128 -124.966207 0.001373 36.712520 -32.802352 25.284604 0.917451 9.494321 -5.031418 -1.771252 0.582969 1.646520 0.000001 -0.000003 0.000000 4.782897 -9.282559 -30.693648 -0.927296 0.970745 -30.513139 -0.000001 0.000000 -0.000005 0.141739 5.434551 -23.864300 -1.992219 -2.131062 -35.804699 0.000001 -0.000001 -0.000005 0.035352 9.396169 -27.537912 -2.195449 -4.005368 -43.816241 -0.000000 0.000000 -0.000002 -1.611757 26.086342 -34.861340 -3.373333 -7.547188 -49.158582 -0.000001 -0.000001 -0.000000 -0.000000 -0.000000 0.000001 1.359717 -0.516245 -25.677022 -74.183484 63.929300 6.922773 0.000743 69.829771 -0.102819 -8.253947 3.138593 -31.981586 -1.839018 5.568556 5.665620 -1.068354 -0.183180 -1.947756 -0.000000 0.000001 0.000001 10.733294 13.557233 9.456773 0.029035 -0.764509 7.181284 0.000001 0.000000 0.000002 -1.757909 -1.455198 6.879492 -0.335859 0.992786 24.866728 -0.000000 0.000002 0.000000 -0.837444 -13.591183 18.998325 -0.352872 2.556190 19.556954 -0.000002 -0.000000 0.000004 -4.175499 -23.888641 28.755776 -0.384008 5.688727 16.250811 -0.000000 0.000002 0.000000 -0.000000 -0.000001 0.000002 0.000001 -0.000001 -0.000001 0.000001 -0.000001 -0.000001 0.000001 -0.000001 -0.000001 0.000001 -0.000001 -0.000001 0.000001 -0.000001 -0.000001 0.000001 -0.000001 -0.000001 0.000001 -0.000001 -0.000001 0.000001 -0.000001 -0.000001 0.000001 -0.000001 -0.000001 -0.000002 0.000000 0.000000 -0.000002 0.000000 0.000000 0.000002 -0.000003 -0.000002 
-32.634865 18.965202 -62.254032 -240.381432 33.521943 111.239746 0.000001 0.000002 -0.000000 -13.096866 3.138394 30.925980 28.013859 -0.093965 -1.027507 -3.743322 27.813041 4.979251 0.000000 0.000000 -0.000000 0.000000 0.000000 0.000000 -0.000000 -0.000001 0.000000 -0.431311 9.787420 -21.308879 27.992685 0.891779 1.074750 -0.712549 -2.529797 9.440525 -0.000001 0.000001 -0.000002 -0.000001 0.000001 -0.000002 0.000001 -0.000000 0.000001 2.674976 -3.597956 5.975569 5.729496 -6.940992 12.144629 5.729499 -6.941001 12.144633 -20.010844 -9.914450 -10.984688 -27.884901 7.638649 -4.673726 -0.000000 -0.000001 0.000001 -0.000000 -0.000001 0.000001 -0.000000 -0.000001 0.000001 -2.776700 -22.729893 -29.696771 -22.310654 -15.577863 -71.381405 0.016382 -132.882929 0.003459 10.756095 -44.985501 2.505872 3.427920 13.055027 -5.881525 -1.577407 0.520389 1.463688 -0.000000 0.000003 -0.000001 4.761759 -9.195984 -35.610759 -0.869914 1.027590 -34.757965 -0.000003 -0.000000 -0.000004 0.034285 5.115307 -28.925417 -2.191148 -2.403961 -40.043681 -0.000001 -0.000003 -0.000000 -0.110171 9.067952 -32.854798 -2.444543 -4.253034 -48.064188 -0.000002 -0.000001 -0.000002 -1.694781 25.679329 -40.402727 -3.749769 -7.855299 -53.425931 0.000001 -0.000000 -0.000002 0.000000 0.000000 -0.000000 1.393020 -0.830861 -22.984244 -84.068673 59.808060 22.799340 0.199001 79.432689 -0.285838 -5.859364 -3.916868 -44.820108 -1.233880 -1.516105 -1.271296 -1.149242 -0.204069 -2.048747 -0.000000 0.000000 0.000002 11.185043 13.701950 7.860411 0.018253 -0.693787 5.295858 -0.000002 -0.000001 -0.000000 -1.748052 -1.547806 5.382262 -0.296302 0.904141 23.299408 -0.000001 0.000002 -0.000002 -0.619479 -14.321946 12.118073 -0.296110 2.389035 17.921182 -0.000001 -0.000001 0.000004 -3.304977 -25.558795 18.341317 -0.310569 5.429768 14.689927 -0.000001 -0.000000 0.000000 -0.000001 0.000001 0.000000 -0.000001 -0.000001 0.000001 -0.000001 -0.000001 0.000001 -0.000001 -0.000001 0.000001 -0.000001 -0.000001 0.000001 -0.000001 -0.000001 -0.000000 0.000001 -0.000001 0.000001 -0.000001 -0.000001 0.000001 -0.000001 -0.000001 -0.000000 0.000001 -0.000001 0.000001 0.000001 -0.000002 -0.000001 0.000001 -0.000002 -0.000001 0.000001 0.000002 -0.000000 
-30.868484 21.664558 -66.205460 -245.675976 30.354570 111.636928 -0.000000 0.000003 -0.000003 -27.608441 6.944572 38.937744 42.803283 -0.423528 -1.557903 -13.059634 25.960029 9.228877 0.000001 0.000000 0.000001 0.000001 0.000000 0.000002 -0.000001 0.000000 -0.000002 1.437455 9.320570 -13.251276 24.290174 0.536822 0.921707 5.751656 4.617972 18.370651 0.000000 -0.000002 0.000001 0.000000 -0.000002 0.000001 -0.000002 -0.000000 0.000001 2.655013 -3.529081 5.030019 5.571251 -6.818497 9.647557 5.571256 -6.818484 9.647564 -23.184425 -12.459829 -8.746528 -28.042877 5.033059 -3.183255 0.000000 0.000001 0.000000 0.000000 0.000001 0.000000 0.000000 0.000001 0.000000 -2.015434 -20.557724 -26.072295 -18.568074 -13.824352 -72.684687 0.011064 -135.772290 0.001958 8.720148 -34.090256 -6.228134 7.469828 18.448659 -7.895030 -1.312400 0.444514 1.157081 0.000000 -0.000000 -0.000001 4.806393 -9.237966 -43.465756 -0.787577 1.105601 -41.267620 0.000001 0.000000 -0.000000 -0.127162 4.758406 -37.091195 -2.547388 -2.791275 -46.547753 0.000002 -0.000001 0.000000 -0.344434 8.636800 -41.531044 -2.870732 -4.597122 -54.583163 -0.000000 -0.000000 -0.000000 -1.725731 25.398673 -49.635603 -4.382726 -8.267802 -59.980508 -0.000002 0.000000 0.000001 0.000000 0.000000 -0.000000 1.528493 -1.168168 -17.730672 -89.846883 51.960674 39.213670 3.798021 89.209811 -3.870699 3.176115 -12.119024 -49.785590 -1.429898 -6.193782 -7.185829 -1.189875 -0.214934 -2.097292 -0.000000 -0.000000 0.000000 10.260752 13.559980 6.508357 0.014487 -0.664524 4.517981 0.000003 0.000000 0.000002 -1.740207 -1.643643 3.834586 -0.262783 0.823486 21.889266 0.000000 0.000001 -0.000000 -0.539351 -14.926695 7.035780 -0.255657 2.259154 16.660853 -0.000001 -0.000003 0.000003 -3.058196 -27.095782 10.759309 -0.251432 5.198632 13.307092 0.000000 -0.000001 -0.000002 -0.000000 -0.000001 -0.000000 -0.000000 0.000000 -0.000000 -0.000000 0.000000 -0.000000 -0.000000 0.000000 -0.000000 -0.000000 0.000000 -0.000000 -0.000000 0.000000 -0.000001 0.000003 0.000000 0.000001 -0.000000 0.000000 -0.000000 -0.000000 0.000000 -0.000001 0.000003 0.000000 0.000001 0.000001 0.000001 0.000001 0.000001 0.000001 0.000001 -0.000000 0.000003 -0.000003 
